2.2Hz3min_grf.mot
version=1
nRows=22
nColumns 19
inDegrees=yes
endheader
time	1_ground_force_vx	1_ground_force_vy	1_ground_force_vz	1_ground_force_px	1_ground_force_py	1_ground_force_pz	1_ground_torque_x	1_ground_torque_y	1_ground_torque_z	2_ground_force_vx	2_ground_force_vy	2_ground_force_vz	2_ground_force_px	2_ground_force_py	2_ground_force_pz	2_ground_torque_x	2_ground_torque_y	2_ground_torque_z
            2.502500	          -15.241429	          841.183644	          -53.997925	           -0.304355	            0.006315	           -0.429879	           -0.036022	            1.988078	           -0.127620	          -37.106460	          770.585702	           40.682962	           -0.245472	            0.005589	           -0.695275	            0.134821	           -2.799815	           -0.147816
            2.503000	          -15.701078	          841.005422	          -54.501971	           -0.304299	            0.006315	           -0.429900	           -0.037945	            2.032472	           -0.131716	          -38.230816	          770.581308	           40.777297	           -0.245312	            0.005589	           -0.695208	            0.129893	           -2.618119	           -0.138545
            2.503500	          -16.252315	          840.286416	          -55.008116	           -0.304361	            0.006316	           -0.430078	           -0.040121	            2.074352	           -0.135794	          -38.794303	          770.947224	           40.872706	           -0.245307	            0.005590	           -0.695346	            0.130509	           -2.593562	           -0.137501
            2.504000	          -16.620556	          841.009767	          -55.554385	           -0.304252	            0.006316	           -0.429957	           -0.040408	            2.044680	           -0.135065	          -39.873595	          771.493686	           41.438273	           -0.245179	            0.005590	           -0.695446	            0.129103	           -2.497942	           -0.134169
            2.504500	          -17.308739	          840.830321	          -55.782728	           -0.304242	            0.006315	           -0.429849	           -0.040161	            1.950971	           -0.129432	          -40.717583	          771.675010	           41.392360	           -0.245069	            0.005591	           -0.695515	            0.139498	           -2.643759	           -0.141810
            2.505000	          -17.905346	          840.651211	          -56.057157	           -0.304178	            0.006316	           -0.429946	           -0.040811	            1.916071	           -0.127769	          -41.044660	          771.487951	           41.861124	           -0.245111	            0.005590	           -0.695302	            0.147265	           -2.768044	           -0.150195
            2.505500	          -18.272351	          840.831708	          -56.147186	           -0.304136	            0.006315	           -0.429848	           -0.041774	            1.922317	           -0.128364	          -41.749194	          772.036223	           42.332675	           -0.245170	            0.005590	           -0.695395	            0.152231	           -2.815099	           -0.154359
            2.506000	          -18.915255	          839.391818	          -56.702047	           -0.304244	            0.006316	           -0.430021	           -0.043403	            1.926081	           -0.130109	          -42.500766	          772.585832	           42.381893	           -0.245026	            0.005591	           -0.695478	            0.144905	           -2.634111	           -0.144500
            2.506500	          -19.329180	          840.475359	          -57.154944	           -0.304195	            0.006315	           -0.429820	           -0.044039	            1.914919	           -0.130220	          -42.928296	          774.240800	           42.622626	           -0.245027	            0.005592	           -0.695704	            0.142443	           -2.569050	           -0.141428
            2.507000	          -19.697014	          840.837528	          -57.565196	           -0.304239	            0.006315	           -0.429792	           -0.047580	            2.031122	           -0.139054	          -43.767418	          773.131405	           43.041396	           -0.245051	            0.005592	           -0.695608	            0.138988	           -2.455160	           -0.136682
            2.507500	          -20.248478	          840.118915	          -58.163045	           -0.304135	            0.006316	           -0.429949	           -0.046305	            1.921220	           -0.133010	          -44.330863	          773.496987	           43.230661	           -0.244966	            0.005591	           -0.695497	            0.144606	           -2.523122	           -0.141017
            2.508000	          -20.890816	          839.939600	          -58.391508	           -0.304235	            0.006316	           -0.429952	           -0.045315	            1.821957	           -0.126660	          -44.709465	          774.598971	           43.657116	           -0.244871	            0.005592	           -0.695569	            0.147813	           -2.560881	           -0.144334
            2.508500	          -20.890784	          839.759304	          -58.392281	           -0.304198	            0.006316	           -0.429970	           -0.047558	            1.911723	           -0.132931	          -45.321009	          775.331996	           44.035428	           -0.244756	            0.005593	           -0.695766	            0.153551	           -2.626884	           -0.149195
            2.509000	          -21.625670	          839.941817	          -58.939959	           -0.304181	            0.006316	           -0.430005	           -0.047107	            1.829636	           -0.128388	          -45.978679	          775.880270	           44.553887	           -0.244867	            0.005593	           -0.695861	            0.155690	           -2.627233	           -0.150865
            2.509500	          -21.900743	          839.401072	          -58.987448	           -0.304195	            0.006316	           -0.430032	           -0.048019	            1.840442	           -0.129334	          -46.261687	          776.431069	           44.743691	           -0.244819	            0.005594	           -0.695969	            0.147773	           -2.480150	           -0.142925
            2.510000	          -21.993244	          840.123297	          -59.259264	           -0.304129	            0.006315	           -0.429787	           -0.050721	            1.937511	           -0.136665	          -46.497185	          776.797835	           44.932817	           -0.244795	            0.005593	           -0.695823	            0.142267	           -2.376755	           -0.137480
            2.510500	          -22.223287	          840.304925	          -59.578917	           -0.304081	            0.006315	           -0.429766	           -0.050713	            1.917565	           -0.135958	          -47.154888	          777.346321	           45.357419	           -0.244861	            0.005593	           -0.695946	            0.141236	           -2.328273	           -0.135853
            2.511000	          -22.453007	          839.945393	          -59.809169	           -0.304101	            0.006315	           -0.429719	           -0.050929	            1.905218	           -0.135663	          -47.202987	          777.713886	           45.546466	           -0.244728	            0.005594	           -0.695910	            0.145213	           -2.392518	           -0.140117
            2.511500	          -22.682870	          839.766233	          -60.084509	           -0.304243	            0.006315	           -0.429881	           -0.050549	            1.871423	           -0.133899	          -47.581610	          778.816038	           45.925993	           -0.244682	            0.005595	           -0.696221	            0.149226	           -2.442535	           -0.144034
            2.512000	          -22.958647	          841.209091	          -60.261066	           -0.304156	            0.006314	           -0.429592	           -0.051406	            1.883531	           -0.134929	          -47.863193	          778.997718	           46.349122	           -0.244770	            0.005594	           -0.696080	            0.153095	           -2.491702	           -0.148252
            2.512500	          -23.417448	          840.128331	          -60.493850	           -0.304166	            0.006315	           -0.429737	           -0.049871	            1.789173	           -0.128830	          -48.148050	          780.099706	           46.869393	           -0.244703	            0.005595	           -0.696298	            0.153395	           -2.485327	           -0.149322
            2.513000	          -23.647219	          840.669961	          -60.674385	           -0.304147	            0.006314	           -0.429525	           -0.052272	            1.858296	           -0.134120	          -48.333997	          779.729744	           47.149728	           -0.244697	            0.005595	           -0.696103	            0.142158	           -2.293307	           -0.138675
